<svg width="699" height="132" viewBox="0 0 699 132" fill="none" xmlns="http://www.w3.org/2000/svg">
<path d="M155.367 101L179.977 30.541H192.965V44.2129H188.473L170.846 101H155.367ZM168.6 83.9102L172.213 72.875H205.074L208.688 83.9102H168.6ZM206.393 101L188.766 44.2129V30.541H197.311L221.871 101H206.393ZM257.027 102.221C250.159 102.221 244.202 100.756 239.156 97.8262C234.143 94.8965 230.27 90.7135 227.535 85.2773C224.833 79.8086 223.482 73.2982 223.482 65.7461V65.6973C223.482 58.1126 224.85 51.6185 227.584 46.2148C230.318 40.7786 234.192 36.612 239.205 33.7148C244.218 30.7852 250.159 29.3203 257.027 29.3203C262.724 29.3203 267.802 30.4271 272.262 32.6406C276.721 34.8542 280.302 37.8978 283.004 41.7715C285.706 45.6126 287.285 50.0397 287.74 55.0527L287.789 55.4922H273.434L273.238 54.6621C272.685 52.0579 271.692 49.7956 270.26 47.875C268.827 45.9544 266.988 44.4733 264.742 43.4316C262.529 42.3574 259.957 41.8203 257.027 41.8203C253.251 41.8203 249.98 42.7806 247.213 44.7012C244.446 46.6217 242.298 49.3724 240.768 52.9531C239.27 56.5013 238.521 60.7331 238.521 65.6484V65.6973C238.521 70.6452 239.27 74.9258 240.768 78.5391C242.298 82.1198 244.446 84.8867 247.213 86.8398C250.012 88.7604 253.284 89.7207 257.027 89.7207C259.859 89.7207 262.382 89.1999 264.596 88.1582C266.842 87.1165 268.714 85.6191 270.211 83.666C271.708 81.6803 272.766 79.2878 273.385 76.4883L273.482 76H287.838L287.789 76.5371C287.333 81.5176 285.738 85.9447 283.004 89.8184C280.302 93.6921 276.721 96.7357 272.262 98.9492C267.802 101.13 262.724 102.221 257.027 102.221ZM296.969 101V30.541H326.07C331.344 30.541 335.852 31.4362 339.596 33.2266C343.372 35.0169 346.253 37.6048 348.238 40.9902C350.257 44.3431 351.266 48.3796 351.266 53.0996V53.1973C351.266 57.8197 350.11 61.9375 347.799 65.5508C345.52 69.1641 342.428 71.7357 338.521 73.2656L353.365 101H336.666L323.531 75.4629C323.434 75.4629 323.32 75.4629 323.189 75.4629C323.059 75.4629 322.929 75.4629 322.799 75.4629H311.715V101H296.969ZM311.715 64.2812H324.459C328.137 64.2812 331.002 63.3047 333.053 61.3516C335.136 59.3659 336.178 56.6478 336.178 53.1973V53.0996C336.178 49.7142 335.104 47.0286 332.955 45.043C330.807 43.0573 327.91 42.0645 324.264 42.0645H311.715V64.2812ZM388.277 78.7832V67.2598H405.562C409.794 67.2598 413.082 66.1855 415.426 64.0371C417.802 61.8561 418.99 58.7637 418.99 54.7598V54.6621C418.99 50.6582 417.802 47.582 415.426 45.4336C413.082 43.2852 409.794 42.2109 405.562 42.2109H388.277V30.541H409.176C414.124 30.541 418.453 31.5501 422.164 33.5684C425.875 35.554 428.756 38.3535 430.807 41.9668C432.89 45.5801 433.932 49.7956 433.932 54.6133V54.7109C433.932 59.5612 432.89 63.793 430.807 67.4062C428.756 71.0195 425.875 73.819 422.164 75.8047C418.453 77.7904 414.124 78.7832 409.176 78.7832H388.277ZM380.855 101V30.541H395.602V101H380.855ZM474.459 102.221C467.493 102.221 461.454 100.74 456.344 97.7773C451.266 94.8151 447.343 90.6159 444.576 85.1797C441.842 79.7109 440.475 73.2493 440.475 65.7949V65.6973C440.475 58.2103 441.858 51.7487 444.625 46.3125C447.392 40.8763 451.314 36.6934 456.393 33.7637C461.503 30.8014 467.525 29.3203 474.459 29.3203C481.425 29.3203 487.447 30.8014 492.525 33.7637C497.604 36.7259 501.526 40.9251 504.293 46.3613C507.06 51.765 508.443 58.2103 508.443 65.6973V65.7949C508.443 73.2493 507.06 79.7109 504.293 85.1797C501.526 90.6159 497.604 94.8151 492.525 97.7773C487.48 100.74 481.458 102.221 474.459 102.221ZM474.459 89.7207C478.365 89.7207 481.734 88.7441 484.566 86.791C487.398 84.8053 489.579 82.0221 491.109 78.4414C492.639 74.8607 493.404 70.6452 493.404 65.7949V65.6973C493.404 60.7819 492.623 56.5501 491.061 53.002C489.531 49.4212 487.333 46.6706 484.469 44.75C481.637 42.7969 478.3 41.8203 474.459 41.8203C470.618 41.8203 467.265 42.7806 464.4 44.7012C461.568 46.6217 459.371 49.3724 457.809 52.9531C456.279 56.5013 455.514 60.7493 455.514 65.6973V65.7949C455.514 70.6777 456.279 74.9095 457.809 78.4902C459.371 82.071 461.568 84.8379 464.4 86.791C467.232 88.7441 470.585 89.7207 474.459 89.7207ZM532.125 80.1504V62.7676H533.053L558.883 30.541H575.289L549.41 62.377H546.529L532.125 80.1504ZM517.965 101V30.541H532.711V101H517.965ZM559.469 101L536.861 67.6016L547.506 57.9336L577.096 101H559.469ZM583.297 101V30.541H629.977V42.6992H598.043V59.5938H628.17V71.1172H598.043V88.8418H629.977V101H583.297ZM640.621 101V30.541H669.723C674.996 30.541 679.505 31.4362 683.248 33.2266C687.024 35.0169 689.905 37.6048 691.891 40.9902C693.909 44.3431 694.918 48.3796 694.918 53.0996V53.1973C694.918 57.8197 693.762 61.9375 691.451 65.5508C689.173 69.1641 686.08 71.7357 682.174 73.2656L697.018 101H680.318L667.184 75.4629C667.086 75.4629 666.972 75.4629 666.842 75.4629C666.712 75.4629 666.581 75.4629 666.451 75.4629H655.367V101H640.621ZM655.367 64.2812H668.111C671.79 64.2812 674.654 63.3047 676.705 61.3516C678.788 59.3659 679.83 56.6478 679.83 53.1973V53.0996C679.83 49.7142 678.756 47.0286 676.607 45.043C674.459 43.0573 671.562 42.0645 667.916 42.0645H655.367V64.2812Z" fill="#F5F5F5"/>
<path d="M92.3439 114.344L110.42 125.834L93.1847 79.8726L82.3949 87.7197L92.3439 114.344ZM34.3312 74.1274L11.6306 132L116.446 55.2102H0L20.0382 68.1019H77.3503L75.949 69.0828L39.656 95.5669L48.0637 74.1274H34.3312ZM67.9618 49.0446H81.6943L63.3376 0L44.1401 49.0446H57.8726L62.9172 36.0127L67.9618 49.0446Z" fill="#02B33B"/>
</svg>
